<?xml version="1.0" encoding="UTF-8"?> <svg xmlns="http://www.w3.org/2000/svg" id="Layer_2" data-name="Layer 2" viewBox="0 0 300.58 184.7"><defs><style> .cls-1 { fill: #f9f9fa; } .cls-2 { opacity: .4; } </style></defs><g id="Layer_2-2" data-name="Layer 2"><g><g class="cls-2"><path class="cls-1" d="M202.89,73.18c-6.32,0-9.09,3.93-7.98,9.74,3.39,17.63,1.02,34.13-6.34,46.98,11.57,9.98,24.09,20.74,37.76,21.78v2.16c-8.36,0-28.14,1.67-46.35-12.78-9.54,9.32-23,14.94-39.79,14.94-42.14,0-65.94-18.35-65.94-50.45,0-19.61,11.09-32.22,26.05-39.8-5.34-8.64-8.15-17.68-8.15-28.76,0-21.12,16.86-36.99,43.3-36.99,14.36,.2,28.9,6.09,36.49,15.35l-3.73,24.38h-2.16c0-20.62-12.3-33.27-30.6-33.27-16.43,0-28.45,12.93-28.45,30.51s11.99,31.78,34.17,51.64c9.01,8.07,20.92,19.2,39.07,34.23,5.66-12.81,5.97-27.95,.11-39.87-2.88-5.84-7.14-9.82-13.87-9.81h-3.39v-2.16h43.03v2.16h-3.25Zm-62.69,76.28c13.9,0,24.84-5.83,32.39-14.49-18.03-14.91-30.01-25.31-41.32-35.7-11.58-10.63-20.84-19.47-27.42-28.35-9.95,9.18-13.86,21.42-13.86,34.61,0,25.94,18.11,43.92,50.22,43.92h-.01Z"></path></g><g><path class="cls-1" d="M80.22,183.7v-.3h.63c.9,0,1.66-.72,1.66-1.62v-15.81c0-.97-.48-1.47-1.38-1.47h-1.13v-.3c1.56-.21,2.96-.53,4.13-1.92h.3v19.52c0,.89,.76,1.61,1.66,1.61h.63v.3h-6.5Z"></path><path class="cls-1" d="M106.01,173.2c0,6.77-2.68,10.92-7.05,10.92s-7.05-4.15-7.05-10.92,2.68-10.92,7.05-10.92,7.05,4.15,7.05,10.92Zm-12,0c0,6.21,1.88,10.02,4.95,10.02s4.95-3.81,4.95-10.02-1.88-10.02-4.95-10.02-4.95,3.81-4.95,10.02Z"></path><path class="cls-1" d="M109.7,182.47c0-.75,.6-1.35,1.35-1.35s1.35,.6,1.35,1.35-.6,1.35-1.35,1.35-1.35-.6-1.35-1.35Z"></path><path class="cls-1" d="M130.16,173.2c0,6.77-2.68,10.92-7.05,10.92s-7.05-4.15-7.05-10.92,2.68-10.92,7.05-10.92,7.05,4.15,7.05,10.92Zm-12,0c0,6.21,1.88,10.02,4.95,10.02s4.95-3.81,4.95-10.02-1.88-10.02-4.95-10.02-4.95,3.81-4.95,10.02Z"></path><path class="cls-1" d="M134.85,162.75h11.98l-3.23,8.63c-.74,1.99-3.23,9-4.03,12.31h-2.1c1.22-3.05,3.65-9.12,4.91-12.42l2.64-6.93h-8.47c-1.2,0-1.81,.61-2.25,1.8h-.3l.85-3.39h0Z"></path><path class="cls-1" d="M147.56,182.47c0-.75,.6-1.35,1.35-1.35s1.35,.6,1.35,1.35-.6,1.35-1.35,1.35-1.35-.6-1.35-1.35Z"></path><path class="cls-1" d="M155.83,167.63l-.52-3.4c1.14-1.14,3.44-1.96,5.36-1.96,3.98,0,6.57,2.26,6.57,5.94,0,5.13-6.36,10.74-9.32,13.79h6.9c1.78,0,2.46-.64,3.51-2.54h.3l-1.43,4.23h-12.31v-.3c3.5-3.23,10.1-10.44,10.1-15.06,0-3.25-1.64-5.21-4.32-5.16-2.79,.05-4.59,1.58-4.54,4.46h-.3Z"></path><path class="cls-1" d="M187.16,173.2c0,6.77-2.68,10.92-7.05,10.92s-7.05-4.15-7.05-10.92,2.68-10.92,7.05-10.92,7.05,4.15,7.05,10.92Zm-12,0c0,6.21,1.88,10.02,4.95,10.02s4.95-3.81,4.95-10.02-1.88-10.02-4.95-10.02-4.95,3.81-4.95,10.02Z"></path><path class="cls-1" d="M192.55,167.63l-.52-3.4c1.14-1.14,3.44-1.96,5.36-1.96,3.98,0,6.57,2.26,6.57,5.94,0,5.13-6.36,10.74-9.32,13.79h6.9c1.78,0,2.46-.64,3.51-2.54h.3l-1.43,4.23h-12.31v-.3c3.5-3.23,10.1-10.44,10.1-15.06,0-3.25-1.64-5.21-4.32-5.16-2.79,.05-4.59,1.58-4.54,4.46h-.3Z"></path><path class="cls-1" d="M219.56,164.98l-7.04,.45-1.38,4.74c5.01-1.27,9.66,.71,9.44,5.92-.3,7.28-8.69,8.99-11.18,8.54l.06-.3c2.53,.06,8.49-2.52,8.88-8.02,.28-4.04-3.54-5.94-8.46-4.27l-.27-.12,2.35-8.14,5.92-.45c1.25,0,1.92-.6,2.38-1.5h.3l-1,3.15h0Z"></path></g><g><g><path class="cls-1" d="M42.58,66.85c-.05,.05-.46,.25-1.22,.58-.83,.37-1.56,2.14-2.21,5.3-1.03,5.09-1.89,8.68-2.59,10.78-1.18,3.63-3.53,7.28-7.05,10.93-.08,.08,.72,.74,2.42,1.98,1.7,1.23,2.77,1.93,3.21,2.08,.25,.08,.49,.13,.71,.13,.68,0,1.29-.4,1.85-1.19,1.12,.98,1.56,1.61,1.32,1.9l-1.67,1.67c-1.12,.91-2.2,1.37-3.25,1.37s-2.49-.92-4.49-2.76c-1.89-1.76-2.82-2.64-2.79-2.66-4.77,3.6-9.86,5.4-15.29,5.4-.42,0-.85-.02-1.27-.05-3.47-.22-5.2-2.17-5.2-5.86,0-1.25,.24-2.63,.71-4.13l3.78-12.04c2.62-8.35,4.55-12.8,5.78-13.36,.37,.07,.6,.12,.68,.15,.07,.03,.05,.05-.05,.05-.08,.02-.17,.02-.25,0-.24-.03-.49-.05-.76-.05-2.81,0-5.56,1.01-8.26,3.02-3.14,2.32-4.74,5.18-4.79,8.59-.02,.59,.17,1.44,.56,2.54,.49,1.45,1.16,2.69,2,3.7l-1.24,1.24c-2.15-2.32-3.22-4.81-3.22-7.48,0-3.94,1.75-7.22,5.25-9.84,3.19-2.38,6.8-3.57,10.83-3.57-.2,0,.9,.14,3.3,.43l-.13,1.52c-.36,.03-.79,.17-1.29,.41-.19,.3-1.59,4.62-4.21,12.96l-3.93,12.47c-.39,1.23-.58,2.38-.58,3.42,0,2.11,.68,3.27,2.03,3.47,.41,.07,.88,.1,1.42,.1,4.26,0,8.45-1.42,12.58-4.26-2.06-2.2-3.09-4.17-3.09-5.93,0-.44,.07-.88,.2-1.31,.13-.43,2.25-3.54,6.34-9.34,4.23-5.97,6.36-9,6.41-9.1,.93-1.74,1.72-2.92,2.38-3.52,.86-.81,2.12-1.25,3.78-1.32,.2,0,.5,.08,.89,.23,.51,.19,.76,.43,.76,.73,0,.2-.12,.42-.35,.63h-.01Zm-8.34,8.61c-.71,0-2.19,1.71-4.44,5.12-1.37,2.16-2.75,4.34-4.13,6.52-.15,.22-.23,.49-.23,.81,0,1.2,1,2.8,2.99,4.79,2.08-2.33,3.03-4.2,2.84-5.6-.03-.3,.5-2.18,1.58-5.64,1.09-3.46,1.63-5.39,1.63-5.79,0-.13-.08-.2-.25-.2h0Z"></path><path class="cls-1" d="M61.03,93.16l-2.61,4.33c-1.15,1.91-2.07,3.22-2.76,3.92s-1.41,1.05-2.16,1.05c-1.52,0-2.28-.95-2.28-2.84,0-.93,.23-2.04,.68-3.32l3.88-11.13c.27-.78,.41-1.22,.41-1.34,0-.19-.12-.28-.36-.28-.98,0-2.91,2.15-5.78,6.44-1.4,2.1-2.51,4.3-3.32,6.62l-6.82,19.52h-3.25l10.85-31.23c.08-.24,.24-.56,.46-.96,.17-.34,.25-.55,.25-.63,0-.07-.04-.1-.13-.1-.59,0-1.51,1.01-2.76,3.02-.14,.22-1.22,2.07-3.25,5.55l-1.34-.91c.69-1.2,1.82-3.09,3.37-5.68,1.54-2.48,2.9-3.73,4.08-3.73,1.32,0,2.1,.75,2.36,2.26,.1,.62-.18,1.95-.84,3.98l-.58,1.78-.53-.3c2.06-2.81,3.69-4.77,4.89-5.88,1.28-1.22,2.46-1.83,3.52-1.83,.46,0,.89,.18,1.29,.53,.56,.47,.84,1.17,.84,2.08,0,.63-.13,1.33-.41,2.1l-4.21,12.12c-.07,.2-.27,.62-.61,1.24-.29,.52-.43,.88-.43,1.07,0,.13,.08,.2,.23,.2,.66,0,1.71-1.27,3.14-3.8l2.76-4.72,1.39,.89,.03-.02Z"></path><path class="cls-1" d="M90.75,93.04l-2.54,4.13c-2,3.26-3.66,4.89-5,4.89-1.54,0-2.31-.94-2.31-2.81,0-.73,.16-1.52,.48-2.38l1.07-2.92,.48,.15-.25,.43,.15,.05-1.95,2.51c-.81,1.03-1.74,2.03-2.79,2.99-1.47,1.32-2.62,1.98-3.45,1.98-1.59,0-2.38-.85-2.38-2.56,0-.76,.19-1.64,.56-2.64l1.09-2.92,.46,.15-.25,.43,.15,.05c-3.52,4.99-6.26,7.48-8.24,7.48-1.61,0-2.41-.88-2.41-2.64,0-.61,.12-1.24,.35-1.9l4.61-12.7c.03-.1,.17-.36,.41-.79,.19-.34,.28-.57,.28-.68s-.07-.18-.2-.18c-.49,0-1.55,1.26-3.17,3.78l-2.81,4.36-1.19-1.09,2.54-3.93c2.08-3.23,3.7-4.84,4.87-4.84,1.55,0,2.37,.94,2.43,2.81,.02,.57-.26,1.67-.84,3.3l-3.93,10.98c-.24,.66-.35,1.02-.35,1.09,0,.22,.13,.33,.41,.33,.68,0,1.88-1.07,3.63-3.22,1.69-2.09,3.03-4.15,4.03-6.16,.59-1.2,1.07-2.3,1.44-3.3l1.98-5.38h3.25l-5.93,16.88c-.29,.81-.27,1.22,.05,1.22,.66,0,1.8-.98,3.42-2.93,1.62-1.95,3.08-4.11,4.36-6.48,.46-.84,.94-1.95,1.45-3.32l1.98-5.38h3.27l-5.93,16.76c-.52,.76-.79,1.25-.79,1.47,0,.15,.09,.23,.28,.23,.68,0,1.72-1.23,3.14-3.68l2.69-4.61,1.42,.96-.02,.03Z"></path><path class="cls-1" d="M121.98,63.45l-.46,1.75h-5.83l-11.36,36.43h-3.5l2.74-7.61,.48,.61c-2.03,2.74-3.64,4.66-4.84,5.75-1.3,1.2-2.49,1.8-3.55,1.8-.47,0-.91-.18-1.32-.53-.56-.47-.84-1.17-.84-2.08,0-.61,.14-1.31,.41-2.1l4.26-12.17c.08-.24,.3-.67,.63-1.29,.29-.51,.43-.84,.43-1.01,0-.14-.08-.2-.23-.2-.66,0-1.72,1.27-3.19,3.8l-2.74,4.61-1.5-.71,2.66-4.39c2.03-3.33,3.69-4.99,5-4.99,1.52,0,2.28,.94,2.28,2.81,0,.93-.23,2.05-.68,3.35l-3.93,11.18c-.37,1.08-.39,1.62-.05,1.62,.98,0,2.93-2.15,5.86-6.46,1.49-2.18,2.61-4.39,3.37-6.62l8.11-23.55h7.79Z"></path></g><g><path class="cls-1" d="M178.1,79.93c-.08,.08-.48,.28-1.19,.58-.37,.15-.68,.6-.91,1.34-.03,.07-.37,1.29-1.01,3.68-.32,1.45-1.07,4.23-2.26,8.32-.54,1.64-1.57,3.38-3.09,5.22-.41,.25-.58,.46-.51,.61,.03,.15,.2,.2,.51,.15,.47-.08,.63-.13,.48-.13h6.21v1.93h-12.8v-.51h-.48v-1.52c1.13-.03,2.29-.08,3.47-.15,.64-.42,1.12-1.38,1.45-2.86,.3-.98,.99-3.62,2.05-7.91l.41,.15c-.54,1.03-2.07,2.73-4.59,5.1-2.82,2.64-5.39,4.59-7.71,5.86-2.91,1.61-5.91,2.44-9,2.51-2.26,.05-3.4-1.33-3.4-4.13,0-1.59,.36-3.56,1.09-5.91l3.78-12.09c2.1-6.69,4.01-10.99,5.75-12.9-1.33,.3-2.66,.61-3.98,.91-1.98,.39-3.87,.58-5.68,.58-1.98,0-3.63-.34-4.97-1.01-1.61-.81-2.41-1.99-2.41-3.55,0-1.74,.76-3.19,2.27-4.35,1.51-1.16,3.39-1.74,5.64-1.74,1.99,0,3.72,.69,5.17,2.08l-.74,1.39c-1.83-1.07-3.25-1.6-4.28-1.6-1.52,0-2.86,.31-4.01,.94-1.3,.71-1.95,1.65-1.95,2.81,0,1.5,1.49,2.26,4.46,2.26,1.61,0,3.77-.15,6.49-.46,2.6-.3,4.18-.45,4.74-.43,.52,.07,1.61,.2,3.27,.41l-.1,1.55c-.37,.03-.8,.18-1.29,.43-.19,.29-1.59,4.61-4.21,12.98l-3.93,12.52s-.4,1.14-1.19,3.37c-.42,1.2-.63,2.04-.63,2.54,0,.68,.33,1.01,.99,1.01,4.67,0,9.6-2.64,14.81-7.91,2.87-2.91,5-5.75,6.39-8.52,.62-1.27,1.24-2.54,1.85-3.83,.88-.81,2.14-1.25,3.78-1.32,.2,0,.49,.07,.86,.2,.51,.2,.76,.46,.76,.76,0,.19-.12,.4-.35,.63h-.01Z"></path><path class="cls-1" d="M207.99,93.04l-2.54,4.13c-2,3.26-3.66,4.89-5,4.89-1.54,0-2.31-.94-2.31-2.81,0-.73,.16-1.52,.48-2.38l1.07-2.92,.48,.15-.25,.43,.15,.05-1.95,2.51c-.81,1.03-1.74,2.03-2.79,2.99-1.47,1.32-2.62,1.98-3.45,1.98-1.59,0-2.38-.85-2.38-2.56,0-.76,.19-1.64,.56-2.64l1.09-2.92,.46,.15-.25,.43,.15,.05c-3.52,4.99-6.26,7.48-8.24,7.48-1.61,0-2.41-.88-2.41-2.64,0-.61,.12-1.24,.35-1.9l4.61-12.7c.03-.1,.17-.36,.41-.79,.19-.34,.28-.57,.28-.68s-.07-.18-.2-.18c-.49,0-1.55,1.26-3.17,3.78l-2.81,4.36-1.19-1.09,2.54-3.93c2.08-3.23,3.7-4.84,4.87-4.84,1.55,0,2.37,.94,2.43,2.81,.02,.57-.26,1.67-.84,3.3l-3.93,10.98c-.24,.66-.35,1.02-.35,1.09,0,.22,.13,.33,.41,.33,.68,0,1.88-1.07,3.63-3.22,1.69-2.09,3.03-4.15,4.03-6.16,.59-1.2,1.07-2.3,1.44-3.3l1.98-5.38h3.25l-5.93,16.88c-.29,.81-.27,1.22,.05,1.22,.66,0,1.8-.98,3.42-2.93s3.08-4.11,4.36-6.48c.46-.84,.94-1.95,1.45-3.32l1.98-5.38h3.27l-5.93,16.76c-.52,.76-.79,1.25-.79,1.47,0,.15,.09,.23,.28,.23,.68,0,1.72-1.23,3.14-3.68l2.69-4.61,1.42,.96-.02,.03Z"></path><path class="cls-1" d="M237.73,93.16l-2.64,4.33c-1.17,1.91-2.1,3.22-2.8,3.92s-1.42,1.05-2.17,1.05c-1.52,0-2.28-.94-2.28-2.81,0-.93,.23-2.04,.68-3.35l3.9-11.13c.27-.76,.41-1.21,.41-1.34,0-.19-.12-.28-.35-.28-1,0-2.95,2.15-5.86,6.44-1.37,2.01-2.48,4.22-3.32,6.62l-6.9,19.52h-3.3l7.83-21.96,.46,.18-.23,.43,.13,.08c-3.5,5.07-6.24,7.61-8.21,7.61-1.61,0-2.41-.9-2.41-2.69,0-.62,.12-1.28,.35-1.95l4.61-12.93c.03-.1,.17-.36,.41-.79,.17-.36,.25-.6,.25-.74,0-.12-.07-.18-.2-.18-.47,0-1.53,1.29-3.17,3.88l-2.79,4.41-1.19-1.09,2.54-4.03c2.06-3.28,3.68-4.92,4.87-4.92,1.54,0,2.34,.96,2.41,2.87,.02,.64-.25,1.77-.81,3.37l-3.93,11.18c-.24,.68-.35,1.04-.35,1.09,0,.24,.13,.35,.41,.35,.68,0,1.88-1.09,3.6-3.27,1.69-2.13,3.04-4.23,4.06-6.29,.59-1.2,1.07-2.32,1.44-3.37l1.95-5.48h3.27l-2.69,7.56-.53-.3c2.06-2.79,3.71-4.75,4.94-5.88,1.3-1.22,2.49-1.83,3.57-1.83,.46,0,.89,.18,1.29,.53,.56,.47,.84,1.17,.84,2.08,0,.61-.14,1.31-.41,2.1l-4.23,12.12c-.07,.2-.28,.63-.63,1.27-.29,.52-.43,.87-.43,1.04,0,.13,.08,.2,.23,.2,.66,0,1.72-1.27,3.17-3.8l2.81-4.72,1.39,.89h0Z"></path><path class="cls-1" d="M267.62,93.04l-2.54,4.13c-2,3.26-3.66,4.89-5,4.89-1.54,0-2.31-.94-2.31-2.81,0-.73,.16-1.52,.48-2.38l1.07-2.92,.48,.15-.25,.43,.15,.05-1.95,2.51c-.81,1.03-1.74,2.03-2.79,2.99-1.47,1.32-2.62,1.98-3.45,1.98-1.59,0-2.38-.85-2.38-2.56,0-.76,.19-1.64,.56-2.64l1.09-2.92,.46,.15-.25,.43,.15,.05c-3.52,4.99-6.26,7.48-8.24,7.48-1.61,0-2.41-.88-2.41-2.64,0-.61,.12-1.24,.35-1.9l4.61-12.7c.03-.1,.17-.36,.41-.79,.19-.34,.28-.57,.28-.68s-.07-.18-.2-.18c-.49,0-1.55,1.26-3.17,3.78l-2.81,4.36-1.19-1.09,2.54-3.93c2.08-3.23,3.7-4.84,4.87-4.84,1.55,0,2.37,.94,2.43,2.81,.02,.57-.26,1.67-.84,3.3l-3.93,10.98c-.24,.66-.35,1.02-.35,1.09,0,.22,.13,.33,.41,.33,.68,0,1.88-1.07,3.63-3.22,1.69-2.09,3.03-4.15,4.03-6.16,.59-1.2,1.07-2.3,1.44-3.3l1.98-5.38h3.25l-5.93,16.88c-.29,.81-.27,1.22,.05,1.22,.66,0,1.8-.98,3.42-2.93s3.08-4.11,4.36-6.48c.46-.84,.94-1.95,1.45-3.32l1.98-5.38h3.27l-5.93,16.76c-.52,.76-.79,1.25-.79,1.47,0,.15,.09,.23,.28,.23,.68,0,1.72-1.23,3.14-3.68l2.69-4.61,1.42,.96-.02,.03Z"></path><path class="cls-1" d="M278.24,86.19l-9.35,28.19h6.11l-.43,1.75h-9.46l10.17-30.52c.29-.86,.43-1.45,.43-1.75,0-.34-.16-.51-.48-.51-.51,0-1.23,.82-2.18,2.46l-3.4,5.88-1.39-.76,3.45-5.93c1.32-2.28,2.62-3.42,3.9-3.42,.54,0,1.11,.19,1.7,.58,.83,.56,1.24,1.36,1.24,2.41,0,.49-.1,1.03-.3,1.62h-.01Z"></path><path class="cls-1" d="M300.58,92.88l-3.09,5.05c-1.77,2.89-3.26,4.33-4.46,4.33-1.5,0-2.26-.88-2.26-2.64,0-.96,.24-2.16,.71-3.6l2.41-7.23c.3-.91,.75-2.01,1.34-3.3,.44-.96,.66-1.56,.66-1.8,0-.27-.19-.41-.58-.41-.52,0-1.5,.78-2.94,2.33-1.69,1.84-3.31,4.12-4.87,6.82-.3,.52-.81,1.85-1.52,3.98l-6.62,19.7h-3.32l14.07-40.56h.76l-7.38,12.68-1.5-.71,8.21-14.12c.66-1.12,1.16-2.16,1.5-3.14,.12-.35,.35-1.08,.68-2.18l1.42-4.72h2.03l-7.38,24.31c3.43-4.43,6.03-6.64,7.81-6.64,1.5,0,2.26,.96,2.26,2.86,0,.66-.1,1.28-.3,1.85l-4.16,12.27c-.12,.34-.34,.8-.66,1.39-.29,.49-.43,.8-.43,.94s.09,.2,.28,.2c.51,0,1.55-1.28,3.12-3.85l2.84-4.64,1.37,.81v.02Z"></path></g></g></g></g></svg> 